<svg width="26" height="26" viewBox="0 0 26 26" fill="none" xmlns="http://www.w3.org/2000/svg">
<g clip-path="url(#clip0_249_1503)">
<path d="M23.111 4.33337H2.88878C2.50569 4.33337 2.13829 4.48556 1.8674 4.75644C1.59652 5.02733 1.44434 5.39473 1.44434 5.77782V20.2223C1.44434 20.6054 1.59652 20.9728 1.8674 21.2436C2.13829 21.5145 2.50569 21.6667 2.88878 21.6667H23.111C23.4941 21.6667 23.8615 21.5145 24.1324 21.2436C24.4033 20.9728 24.5554 20.6054 24.5554 20.2223V5.77782C24.5554 5.39473 24.4033 5.02733 24.1324 4.75644C23.8615 4.48556 23.4941 4.33337 23.111 4.33337ZM21.9988 20.2223H4.08767L9.14322 14.9934L8.10322 13.9895L2.88878 19.3845V6.8756L11.866 15.8095C12.1366 16.0785 12.5027 16.2295 12.8843 16.2295C13.2659 16.2295 13.632 16.0785 13.9027 15.8095L23.111 6.65171V19.2906L17.7954 13.975L16.7771 14.9934L21.9988 20.2223ZM3.83489 5.77782H21.941L12.8843 14.7839L3.83489 5.77782Z" fill="black"/>
</g>
<defs>
<clipPath id="clip0_249_1503">
<rect width="26" height="26" fill="white"/>
</clipPath>
</defs>
</svg>
